<?xml version="1.0" encoding="UTF-8"?>
<svg version="1.1" xmlns="http://www.w3.org/2000/svg" width="2578" height="1664">
<path d="M0 0 C850.74 0 1701.48 0 2578 0 C2578 549.12 2578 1098.24 2578 1664 C1727.26 1664 876.52 1664 0 1664 C0 1114.88 0 565.76 0 0 Z " fill="#FEFEFE" transform="translate(0,0)"/>
<path d="M0 0 C164.09424037 0 164.09424037 0 195.8125 30.375 C213.42512647 48.59495841 219.49863085 72.78756473 219.21875 97.453125 C218.55041469 121.66357165 209.11090771 143.04257168 192.75 160.6875 C156.60982973 194.71667901 107.60793135 189 61 189 C61 230.58 61 272.16 61 315 C40.87 315 20.74 315 0 315 C0 211.05 0 107.1 0 0 Z " fill="#010101" transform="translate(764,631)"/>
<path d="M0 0 C19.47 0 38.94 0 59 0 C59 95.7 59 191.4 59 290 C39.53 290 20.06 290 0 290 C-0.33 231.26 -0.66 172.52 -1 112 C-4.96 119.26 -8.92 126.52 -13 134 C-15.09239594 137.73725815 -17.18906974 141.4683471 -19.3125 145.1875 C-25.98359322 156.93561845 -32.54282937 168.74456814 -39.09277344 180.56054688 C-42.22493414 186.20902101 -45.36268433 191.85438797 -48.5 197.5 C-52.26317272 204.27263135 -56.0256515 211.04564423 -59.78515625 217.8203125 C-62.90996322 223.4506135 -66.0376166 229.07932309 -69.16796875 234.70654297 C-70.37684259 236.879745 -71.58518727 239.05324147 -72.79296875 241.22705078 C-81.33838284 256.59889251 -90.08038706 271.84239409 -99 287 C-102.44448988 285.59507703 -103.81384844 284.19247759 -105.63671875 280.9765625 C-106.3652002 279.71477173 -106.3652002 279.71477173 -107.10839844 278.42749023 C-107.62950195 277.50266846 -108.15060547 276.57784668 -108.6875 275.625 C-109.85096634 273.60697732 -111.01642732 271.59010367 -112.18359375 269.57421875 C-112.80218262 268.50220215 -113.42077148 267.43018555 -114.05810547 266.32568359 C-117.03037264 261.23538647 -120.10684726 256.20937445 -123.18325806 251.18167114 C-130.68239339 238.92024698 -137.99140094 226.55423778 -145.23777771 214.14215088 C-148.3547518 208.80350819 -151.48814838 203.47717627 -154.6875 198.1875 C-160.91511991 187.86467477 -166.95182883 177.42864133 -173 167 C-173.46486816 166.19852539 -173.92973633 165.39705078 -174.40869141 164.57128906 C-175.56730584 162.57016771 -176.72236544 160.56707017 -177.875 158.5625 C-178.49117187 157.49128906 -179.10734375 156.42007813 -179.7421875 155.31640625 C-181 153 -181 153 -181 152 C-180.29617188 151.98018066 -179.59234375 151.96036133 -178.8671875 151.93994141 C-147.27206071 151.28789822 -147.27206071 151.28789822 -117.22265625 142.27734375 C-114 141 -114 141 -111.96899414 141.13574219 C-109.19690207 142.35250672 -108.62239464 143.86940454 -107.2734375 146.55078125 C-106.7990625 147.47697266 -106.3246875 148.40316406 -105.8359375 149.35742188 C-105.11277344 150.82018555 -105.11277344 150.82018555 -104.375 152.3125 C-103.64023437 153.75786133 -103.64023437 153.75786133 -102.890625 155.23242188 C-101.58042417 157.81523582 -100.28671165 160.405426 -99 163 C-98.33372811 164.33353065 -97.66720561 165.66693628 -97 167 C-94.3091852 163.76733025 -92.06115192 160.57222803 -90.0390625 156.88671875 C-89.49266113 155.89889404 -88.94625977 154.91106934 -88.38330078 153.89331055 C-87.80306152 152.83539307 -87.22282227 151.77747559 -86.625 150.6875 C-81.88438892 142.13092676 -77.07721765 133.62342975 -72.125 125.1875 C-67.07271333 116.57119164 -62.07432986 107.92579066 -57.125 99.25 C-56.79163635 98.66568207 -56.45827271 98.08136414 -56.11480713 97.4793396 C-54.4199651 94.5080802 -52.72592016 91.53636728 -51.03222656 88.56445312 C-48.02529256 83.28906705 -45.01140383 78.01765562 -41.99798584 72.74597168 C-40.3317007 69.83081342 -38.66587373 66.91539337 -37 64 C-36.33333552 62.83333208 -35.66666886 61.66666541 -35 60.5 C-34.67 59.9225 -34.34 59.345 -34 58.75 C-31 53.50000001 -31 53.50000001 -30.00022888 51.75041199 C-29.33278613 50.58237954 -28.66535655 49.41433957 -27.99794006 48.24629211 C-26.34325467 45.35046034 -24.68829877 42.45478399 -23.03295898 39.55932617 C-19.88978719 34.06081605 -16.7488645 28.5610619 -13.61514282 23.05715942 C-12.12452927 20.43941793 -10.6327473 17.82234321 -9.14086914 15.20532227 C-8.42576334 13.95012298 -7.71123866 12.69459242 -6.99731445 11.4387207 C-6.01137144 9.70441972 -5.02331812 7.97131894 -4.03515625 6.23828125 C-3.19029663 4.7538855 -3.19029663 4.7538855 -2.32836914 3.23950195 C-1 1 -1 1 0 0 Z " fill="#010101" transform="translate(1047,685)"/>
<path d="M0 0 C11.88 0 23.76 0 36 0 C41.10157959 9.62012151 46.16068045 19.24546131 51 29 C54.48621099 36.02027062 58.0624859 42.98235324 61.74023438 49.90405273 C64.65227228 55.40013045 67.5066864 60.92392925 70.33984375 66.4609375 C70.91310143 67.57989159 70.91310143 67.57989159 71.49794006 68.72145081 C73.05296749 71.75695666 74.60797473 74.79243964 76.15530396 77.83187866 C77.24604058 79.97427417 78.34137458 82.11426409 79.4375 84.25390625 C79.76729355 84.90511444 80.0970871 85.55632263 80.43687439 86.2272644 C81.77306683 88.82736722 82.91873178 90.91873178 85 93 C85.25056152 92.49364014 85.50112305 91.98728027 85.75927734 91.46557617 C86.96211557 89.03835229 88.16857956 86.61294527 89.375 84.1875 C89.76816406 83.39279297 90.16132812 82.59808594 90.56640625 81.77929688 C93.05978659 76.77335634 95.62266887 71.80961197 98.24456787 66.87014771 C105.11863226 53.91217475 111.66284853 40.7915089 118.20281982 27.6630249 C119.76389167 24.53044582 121.32735432 21.39906033 122.890625 18.26757812 C125.92958816 12.17962884 128.96471151 6.08978767 132 0 C143.88 0 155.76 0 168 0 C168 49.83 168 99.66 168 151 C158.1 151 148.2 151 138 151 C137.67 118.33 137.34 85.66 137 52 C131.06 63.88 125.12 75.76 119 88 C116.10456723 93.55519078 113.20939649 99.10114985 110.25976562 104.62597656 C107.60347682 109.63174253 104.99335045 114.66181979 102.375 119.6875 C100.60125 123.090625 98.8275 126.49375 97 130 C88.75 130 80.5 130 72 130 C67.51934023 121.51390196 63.0407886 113.02815214 58.640625 104.5 C52.55388434 92.70315866 46.41999978 80.94562354 39.99462891 69.32885742 C36.83901064 63.61049122 33.92695176 57.85390352 31 52 C30.67 84.67 30.34 117.34 30 151 C20.1 151 10.2 151 0 151 C0 101.17 0 51.34 0 0 Z " fill="#030303" transform="translate(1202,816)"/>
<path d="M0 0 C2.52656786 1.66906604 4.83145869 3.43356561 7.140625 5.390625 C7.84703125 5.98617187 8.5534375 6.58171875 9.28125 7.1953125 C19.78365036 16.85591741 25.60442885 30.14102941 26.34375 44.2734375 C26.65319491 60.84528262 22.93291266 77.29478607 11.078125 89.65234375 C4.49936554 95.55465818 -2.45738807 99.67193329 -10.859375 102.390625 C-11.51808594 102.61621094 -12.17679688 102.84179688 -12.85546875 103.07421875 C-24.87521826 106.47161384 -39.59290945 105.57893042 -50.859375 100.390625 C-55.628372 97.61134198 -59.77371876 95.01910937 -62.859375 90.390625 C-63.189375 109.860625 -63.519375 129.330625 -63.859375 149.390625 C-73.759375 149.390625 -83.659375 149.390625 -93.859375 149.390625 C-93.859375 98.900625 -93.859375 48.410625 -93.859375 -3.609375 C-85.279375 -3.609375 -76.699375 -3.609375 -67.859375 -3.609375 C-66.869375 0.680625 -65.879375 4.970625 -64.859375 9.390625 C-63.951875 8.194375 -63.044375 6.998125 -62.109375 5.765625 C-47.24964732 -11.26869697 -18.33357079 -10.31889503 0 0 Z " fill="#020202" transform="translate(1548.859375,689.609375)"/>
<path d="M0 0 C9.9 0 19.8 0 30 0 C30 51.48 30 102.96 30 156 C21.42 156 12.84 156 4 156 C2.60995008 151.13482528 1.60543875 146.94441643 1 142 C0.65710937 142.49628906 0.31421875 142.99257813 -0.0390625 143.50390625 C-5.66553589 150.80723501 -13.87912646 155.56372408 -22.86328125 157.671875 C-34.63758712 158.9035583 -46.08635065 159.0614026 -57 154 C-57.93070313 153.5875 -58.86140625 153.175 -59.8203125 152.75 C-71.1457686 147.19768726 -78.99397633 138.49821062 -84 127 C-84.4125 126.08347656 -84.825 125.16695312 -85.25 124.22265625 C-88.00036102 116.95520924 -88.37938059 110.08880638 -88.4375 102.375 C-88.44765137 101.42141602 -88.45780273 100.46783203 -88.46826172 99.48535156 C-88.29166579 85.03433223 -83.32124726 72.77041722 -73.37890625 62.3203125 C-61.20270389 50.4440166 -48.65231767 46.71934007 -32.02270508 46.6809082 C-18.92567246 46.85644128 -10.02051186 51.98359051 0 60 C0 40.2 0 20.4 0 0 Z " fill="#040404" transform="translate(1663,811)"/>
<path d="M0 0 C89.25164474 0 89.25164474 0 104.9609375 14.765625 C113.15400024 23.74346387 116.54141748 34.09469433 116.3125 46.0625 C116.31572266 46.90876953 116.31894531 47.75503906 116.32226562 48.62695312 C116.22314046 60.31471071 112.44614575 71.53081532 104.5 80.3125 C89.07979255 94.41097539 69.74636908 94.43268199 50.1875 94.1875 C43.195625 94.125625 36.20375 94.06375 29 94 C29 112.48 29 130.96 29 150 C19.43 150 9.86 150 0 150 C0 100.5 0 51 0 0 Z " fill="#020202" transform="translate(1202,641)"/>
<path d="M0 0 C1.52234253 0.00845947 1.52234253 0.00845947 3.07543945 0.01708984 C16.63973973 0.23616625 30.07505332 3.06299246 40.5625 12.3125 C48.2437702 20.72981329 51.88258244 31.48660504 51.86352539 42.6730957 C51.86367142 43.39559006 51.86381744 44.11808441 51.8639679 44.86247253 C51.86327422 47.23777322 51.85550745 49.61299435 51.84765625 51.98828125 C51.84579013 53.64023292 51.84436714 55.29218515 51.84336853 56.94413757 C51.83955861 61.28257792 51.82974139 65.62098455 51.81866455 69.95941162 C51.8084176 74.39025415 51.80386388 78.82110215 51.79882812 83.25195312 C51.78811771 91.93881925 51.7705333 100.62565154 51.75 109.3125 C43.5 109.3125 35.25 109.3125 26.75 109.3125 C26.255 101.8875 26.255 101.8875 25.75 94.3125 C24.1 95.9625 22.45 97.6125 20.75 99.3125 C10.30520964 109.71404071 -0.95519159 111.61402636 -15.26171875 111.62719727 C-26.53501916 111.43358062 -36.95800039 108.2303119 -45.25 100.3125 C-52.45174771 90.77385864 -53.07859049 81.90125859 -52.25 70.3125 C-49.92131819 61.7191579 -42.50145718 55.92244563 -35.25 51.3125 C-22.449398 44.88077363 -9.6001622 45.05026013 4.375 45.1875 C6.16015123 45.19754897 7.94530794 45.20667143 9.73046875 45.21484375 C14.07044931 45.2367075 18.41016332 45.27113185 22.75 45.3125 C21.47444842 38.3654306 21.47444842 38.3654306 18.5625 32 C18.01529297 31.07767578 18.01529297 31.07767578 17.45703125 30.13671875 C13.80177009 26.23052433 9.84610128 24.14463821 4.55859375 23.81640625 C3.10143219 23.81509703 1.64410925 23.83486232 0.1875 23.875 C-0.90594727 23.86436523 -0.90594727 23.86436523 -2.02148438 23.85351562 C-8.16708595 23.92542635 -12.24195463 25.62391639 -17 29.625 C-19.74192994 32.56654143 -19.74192994 32.56654143 -21.25 38.3125 C-30.82 38.3125 -40.39 38.3125 -50.25 38.3125 C-49.01071626 28.39823005 -45.63729979 19.37147535 -38.25 12.3125 C-26.05683191 3.5516234 -14.96741252 -0.08698372 0 0 Z " fill="#030303" transform="translate(1381.25,682.6875)"/>
<path d="M0 0 C11.60475429 8.66621136 19.15728011 19.78640053 22 34 C22 40.27 22 46.54 22 53 C-5.39 53 -32.78 53 -61 53 C-58.85530965 62.65110655 -57.48152234 67.9214399 -49.3125 73.4375 C-41.51810739 78.24513376 -32.0067524 78.33662319 -23.0859375 76.3515625 C-19.02725609 74.71972152 -16.98558067 73.10532776 -14.75390625 69.375 C-12.43233297 66.58452498 -11.25489697 66.04276154 -7.61352539 65.43188477 C-3.42951175 65.3105086 0.6955275 65.38866768 4.875 65.5625 C6.34107165 65.59764555 7.80722403 65.62957892 9.2734375 65.65820312 C12.8506466 65.73500771 16.42480774 65.85560869 20 66 C17.21882887 73.41615797 14.22714923 79.02451957 9 85 C8.24976563 85.92619141 8.24976563 85.92619141 7.484375 86.87109375 C-0.62350852 96.06412329 -14.49676445 101.32441453 -26.47265625 102.17578125 C-37.47549248 102.72357537 -47.89093862 102.90228579 -58 98 C-59.40765625 97.34644531 -59.40765625 97.34644531 -60.84375 96.6796875 C-75.07490453 89.52501366 -83.55815601 78.85687854 -89.0546875 64.078125 C-93.5150664 49.55424661 -92.02317204 33.35154946 -85.45703125 19.8203125 C-78.04718862 6.22147088 -67.10976341 -2.26082749 -52.5078125 -7.2734375 C-35.09464367 -12.31837426 -15.3050248 -9.48538749 0 0 Z " fill="#030303" transform="translate(1681,692)"/>
<path d="M0 0 C9.62029495 6.99341513 15.28709779 16.44480062 17.1875 28.25 C17.27396579 30.70229983 17.30520566 33.15677556 17.30102539 35.6105957 C17.30117142 36.33309006 17.30131744 37.05558441 17.3014679 37.79997253 C17.30077422 40.17527322 17.29300745 42.55049435 17.28515625 44.92578125 C17.28329013 46.57773292 17.28186714 48.22968515 17.28086853 49.88163757 C17.27705861 54.22007792 17.26724139 58.55848455 17.25616455 62.89691162 C17.2459176 67.32775415 17.24136388 71.75860215 17.23632812 76.18945312 C17.22561771 84.87631925 17.2080333 93.56315154 17.1875 102.25 C7.6175 102.25 -1.9525 102.25 -11.8125 102.25 C-11.84988281 97.67382812 -11.88726563 93.09765625 -11.92578125 88.3828125 C-11.95609358 85.46610975 -11.98726257 82.54946563 -12.02148438 79.6328125 C-12.07560095 75.0137037 -12.12671774 70.39471085 -12.15893555 65.77539062 C-12.18513995 62.04691451 -12.2256598 58.31883272 -12.27568626 54.59060287 C-12.29224015 53.17546406 -12.30382532 51.76025722 -12.31011391 50.34503555 C-12.34844479 36.32767018 -12.34844479 36.32767018 -18.0625 23.8125 C-24.35337771 17.95054577 -30.04221003 17.70255161 -38.4296875 17.8984375 C-44.37607741 18.51642259 -47.90557093 20.74219562 -52.5 24.375 C-58.06698053 31.29611093 -60.89025416 38.48328732 -61.01782227 47.30371094 C-61.03776749 48.52467468 -61.05771271 49.74563843 -61.07826233 51.00360107 C-61.10333107 52.97408417 -61.10333107 52.97408417 -61.12890625 54.984375 C-61.14948919 56.34629936 -61.17048601 57.70821752 -61.19187927 59.07012939 C-61.24696165 62.64734872 -61.29643164 66.22462438 -61.34472656 69.80194092 C-61.39504289 73.45525085 -61.45062472 77.10848042 -61.50585938 80.76171875 C-61.61376814 87.92441727 -61.7128984 95.08716184 -61.8125 102.25 C-71.3825 102.25 -80.9525 102.25 -90.8125 102.25 C-90.8125 67.27 -90.8125 32.29 -90.8125 -3.75 C-82.2325 -3.75 -73.6525 -3.75 -64.8125 -3.75 C-64.15265277 0.20908338 -63.69124308 3.24704338 -63.75 7.125 C-63.75902344 7.90617188 -63.76804687 8.68734375 -63.77734375 9.4921875 C-63.78894531 10.07226562 -63.80054688 10.65234375 -63.8125 11.25 C-62.8225 10.2290625 -62.8225 10.2290625 -61.8125 9.1875 C-60.81730221 8.20345289 -59.81668927 7.22486987 -58.8125 6.25 C-58.23113281 5.68410156 -57.64976563 5.11820313 -57.05078125 4.53515625 C-41.38317658 -9.9883637 -18.07506744 -11.06266669 0 0 Z " fill="#020202" transform="translate(1538.8125,864.75)"/>
<path d="M0 0 C9.838125 -0.061875 19.67625 -0.12375 29.8125 -0.1875 C34.43922729 -0.22846802 34.43922729 -0.22846802 39.15942383 -0.27026367 C41.63362233 -0.27903434 44.1078252 -0.2866769 46.58203125 -0.29296875 C47.84285522 -0.30831665 49.1036792 -0.32366455 50.40270996 -0.33947754 C63.07660245 -0.34319168 76.30636438 2.31649999 86.171875 10.88671875 C94.47340326 19.91551765 96.51988116 29.01452004 96.2734375 41.07421875 C95.5251555 51.81741037 91.17586419 60.19617582 83.37890625 67.5234375 C75.32933959 73.89359817 64.76762205 76.13437266 54.71923828 76.11352539 C53.48149658 76.11340454 52.24375488 76.11328369 50.96850586 76.11315918 C49.03890015 76.10548523 49.03890015 76.10548523 47.0703125 76.09765625 C45.87720459 76.09664917 44.68409668 76.09564209 43.45483398 76.09460449 C39.01154617 76.08938506 34.56827209 76.0754238 30.125 76.0625 C15.213125 76.0315625 15.213125 76.0315625 0 76 C0 50.92 0 25.84 0 0 Z " fill="#FDFDFD" transform="translate(825,687)"/>
<path d="M0 0 C0 9.57 0 19.14 0 29 C-4.62 29.33 -9.24 29.66 -14 30 C-21.74628943 31.48820339 -28.86206637 33.74781571 -34 40 C-37.19815692 45.33026153 -38.11339139 49.72388182 -38.20532227 55.87011719 C-38.22526749 57.05103943 -38.24521271 58.23196167 -38.26576233 59.44866943 C-38.28247482 60.71857727 -38.29918732 61.98848511 -38.31640625 63.296875 C-38.33718735 64.60078186 -38.35796844 65.90468872 -38.37937927 67.24810791 C-38.43445236 70.70695808 -38.4839264 74.1658664 -38.53222656 77.62481689 C-38.58254972 81.15748229 -38.63812809 84.69006475 -38.69335938 88.22265625 C-38.80125562 95.14837359 -38.90039306 102.0741386 -39 109 C-48.9 109 -58.8 109 -69 109 C-69 73.69 -69 38.38 -69 2 C-60.09 2 -51.18 2 -42 2 C-40.515 10.91 -40.515 10.91 -39 20 C-38.195625 18.824375 -37.39125 17.64875 -36.5625 16.4375 C-27.36521702 4.29622691 -14.90345819 0 0 0 Z " fill="#040404" transform="translate(1791,683)"/>
<path d="M0 0 C9.57 0 19.14 0 29 0 C29 34.98 29 69.96 29 106 C19.43 106 9.86 106 0 106 C0 71.02 0 36.04 0 0 Z " fill="#010101" transform="translate(1395,861)"/>
<path d="M0 0 C5.83949507 4.383336 9.25438844 11.0064734 11.16015625 17.90234375 C12.33740738 28.52024341 11.54977074 37.00300807 5.16015625 45.90234375 C-0.03870196 51.78388032 -6.15422075 55.81641428 -14.109375 56.37109375 C-24.38090542 56.60519951 -32.24027858 56.05856985 -40.109375 48.8125 C-47.81840568 40.68676496 -49.41055327 33.88192561 -49.31811523 23.04174805 C-49.03698685 13.70304279 -46.28641165 7.98549481 -39.58984375 1.46484375 C-28.10717239 -7.8837127 -12.51009039 -7.46355711 0 0 Z " fill="#FCFCFC" transform="translate(1533.83984375,713.09765625)"/>
<path d="M0 0 C6.59221553 4.58967459 11.5635168 10.43129564 13.6015625 18.33203125 C15.25456219 29.40064679 14.62549758 38.64552889 8 48 C2.90662601 53.77249053 -3.17871044 57.88649901 -11.05078125 58.46875 C-21.07756077 58.71216932 -28.37244405 57.81239514 -36.23828125 51.0859375 C-43.2425265 44.04327775 -46.09611363 35.70710871 -46.5 25.875 C-46.14766677 17.16895949 -43.07366241 10.03611464 -37.015625 3.76171875 C-27.30165216 -4.72859472 -11.39756953 -6.42408464 0 0 Z " fill="#FCFCFC" transform="translate(1650,886)"/>
<path d="M0 0 C6.22875 -0.0825 12.4575 -0.165 18.875 -0.25 C21.79255127 -0.30462402 21.79255127 -0.30462402 24.76904297 -0.36035156 C43.45030965 -0.56775462 43.45030965 -0.56775462 51.47265625 6.03515625 C51.99730469 6.70417969 52.52195312 7.37320313 53.0625 8.0625 C53.61035156 8.73410156 54.15820312 9.40570312 54.72265625 10.09765625 C58.52296182 15.75743855 57.48340746 23.47059503 57 30 C55.41170796 36.01735785 51.9992445 39.50052885 47 43 C40.53064038 46.69677693 34.9843302 47.14766143 27.63671875 47.09765625 C26.93405884 47.09664917 26.23139893 47.09564209 25.50744629 47.09460449 C22.90078075 47.08940101 20.29413861 47.07543987 17.6875 47.0625 C11.850625 47.041875 6.01375 47.02125 0 47 C0 31.49 0 15.98 0 0 Z " fill="#F9F9F8" transform="translate(1231,665)"/>
<path d="M0 0 C4.98973281 2.97698881 8.76973378 6.43029508 10.64453125 12.0546875 C11.30153863 17.6392502 10.1518931 20.75767411 7.08203125 25.2578125 C4.06349504 29.03098276 0.77059899 31.81371282 -4.078125 32.36328125 C-11.12017433 32.63507965 -15.96312834 32.24797531 -21.609375 27.82421875 C-25.2876071 24.09661441 -26.46304789 20.08655365 -26.79296875 14.9921875 C-26.16664676 9.3552896 -24.00540747 6.53963235 -19.85546875 2.8046875 C-13.78281941 -1.44616704 -7.13083675 -2.86179518 0 0 Z " fill="#050505" transform="translate(1417.35546875,810.9453125)"/>
<path d="M0 0 C0.66022156 0.00141495 1.32044312 0.0028299 2.00067139 0.00428772 C4.09945294 0.0098638 6.19812595 0.02241178 8.296875 0.03515625 C9.72395679 0.04017435 11.15104025 0.04473671 12.578125 0.04882812 C16.06774332 0.05982537 19.55729856 0.07707345 23.046875 0.09765625 C22.2599998 8.05947953 20.39929817 15.53974969 14.109375 21.03515625 C8.46441345 24.83686505 4.01781883 26.65922924 -2.828125 26.59765625 C-3.88604248 26.59233887 -3.88604248 26.59233887 -4.96533203 26.58691406 C-10.01616938 26.42582889 -13.50317756 25.53663152 -17.5703125 22.58203125 C-20.79502173 19.12047897 -21.40583228 15.77306366 -21.265625 11.05859375 C-20.7505167 7.82628916 -19.3216099 6.2791555 -16.953125 4.09765625 C-11.11847993 0.69411329 -6.69902305 -0.02838569 0 0 Z " fill="#F9F9F9" transform="translate(1379.953125,745.90234375)"/>
<path d="M0 0 C5.80280486 3.44846821 10.57774918 8.28767197 12.375 14.9375 C12.375 16.2575 12.375 17.5775 12.375 18.9375 C-5.115 18.9375 -22.605 18.9375 -40.625 18.9375 C-39.0746737 11.18586852 -35.5125217 5.88877896 -28.9375 1.4375 C-20.78078171 -3.63403469 -8.76999521 -4.08373823 0 0 Z " fill="#FAFAFA" transform="translate(1660.625,708.0625)"/>
</svg>
