<?xml version="1.0" encoding="UTF-8"?>
<svg xmlns="http://www.w3.org/2000/svg" viewBox="740 610 490 380" width="128" height="128">
    <style>
        .mark-path { fill: #000; }
        .counter-path { fill: #FFF; }
        @media (prefers-color-scheme: dark) {
            .mark-path { fill: #FFF; }
            .counter-path { fill: #000; }
        }
    </style>
    <path class="mark-path" d="M0 0 C164.09424037 0 164.09424037 0 195.8125 30.375 C213.42512647 48.59495841 219.49863085 72.78756473 219.21875 97.453125 C218.55041469 121.66357165 209.11090771 143.04257168 192.75 160.6875 C156.60982973 194.71667901 107.60793135 189 61 189 C61 230.58 61 272.16 61 315 C40.87 315 20.74 315 0 315 C0 211.05 0 107.1 0 0 Z " transform="translate(764,631)"/>
    <path class="mark-path" d="M0 0 C19.47 0 38.94 0 59 0 C59 95.7 59 191.4 59 290 C39.53 290 20.06 290 0 290 C-0.33 231.26 -0.66 172.52 -1 112 C-4.96 119.26 -8.92 126.52 -13 134 C-15.09239594 137.73725815 -17.18906974 141.4683471 -19.3125 145.1875 C-25.98359322 156.93561845 -32.54282937 168.74456814 -39.09277344 180.56054688 C-42.22493414 186.20902101 -45.36268433 191.85438797 -48.5 197.5 C-52.26317272 204.27263135 -56.0256515 211.04564423 -59.78515625 217.8203125 C-62.90996322 223.4506135 -66.0376166 229.07932309 -69.16796875 234.70654297 C-70.37684259 236.879745 -71.58518727 239.05324147 -72.79296875 241.22705078 C-81.33838284 256.59889251 -90.08038706 271.84239409 -99 287 C-102.44448988 285.59507703 -103.81384844 284.19247759 -105.63671875 280.9765625 C-106.3652002 279.71477173 -106.3652002 279.71477173 -107.10839844 278.42749023 C-107.62950195 277.50266846 -108.15060547 276.57784668 -108.6875 275.625 C-109.85096634 273.60697732 -111.01642732 271.59010367 -112.18359375 269.57421875 C-112.80218262 268.50220215 -113.42077148 267.43018555 -114.05810547 266.32568359 C-117.03037264 261.23538647 -120.10684726 256.20937445 -123.18325806 251.18167114 C-130.68239339 238.92024698 -137.99140094 226.55423778 -145.23777771 214.14215088 C-148.3547518 208.80350819 -151.48814838 203.47717627 -154.6875 198.1875 C-160.91511991 187.86467477 -166.95182883 177.42864133 -173 167 C-173.46486816 166.19852539 -173.92973633 165.39705078 -174.40869141 164.57128906 C-175.56730584 162.57016771 -176.72236544 160.56707017 -177.875 158.5625 C-178.49117187 157.49128906 -179.10734375 156.42007813 -179.7421875 155.31640625 C-181 153 -181 153 -181 152 C-180.29617188 151.98018066 -179.59234375 151.96036133 -178.8671875 151.93994141 C-147.27206071 151.28789822 -147.27206071 151.28789822 -117.22265625 142.27734375 C-114 141 -114 141 -111.96899414 141.13574219 C-109.19690207 142.35250672 -108.62239464 143.86940454 -107.2734375 146.55078125 C-106.7990625 147.47697266 -106.3246875 148.40316406 -105.8359375 149.35742188 C-105.11277344 150.82018555 -105.11277344 150.82018555 -104.375 152.3125 C-103.64023437 153.75786133 -103.64023437 153.75786133 -102.890625 155.23242188 C-101.58042417 157.81523582 -100.28671165 160.405426 -99 163 C-98.33372811 164.33353065 -97.66720561 165.66693628 -97 167 C-94.3091852 163.76733025 -92.06115192 160.57222803 -90.0390625 156.88671875 C-89.49266113 155.89889404 -88.94625977 154.91106934 -88.38330078 153.89331055 C-87.80306152 152.83539307 -87.22282227 151.77747559 -86.625 150.6875 C-81.88438892 142.13092676 -77.07721765 133.62342975 -72.125 125.1875 C-67.07271333 116.57119164 -62.07432986 107.92579066 -57.125 99.25 C-56.79163635 98.66568207 -56.45827271 98.08136414 -56.11480713 97.4793396 C-54.4199651 94.5080802 -52.72592016 91.53636728 -51.03222656 88.56445312 C-48.02529256 83.28906705 -45.01140383 78.01765562 -41.99798584 72.74597168 C-40.3317007 69.83081342 -38.66587373 66.91539337 -37 64 C-36.33333552 62.83333208 -35.66666886 61.66666541 -35 60.5 C-34.67 59.9225 -34.34 59.345 -34 58.75 C-31 53.50000001 -31 53.50000001 -30.00022888 51.75041199 C-29.33278613 50.58237954 -28.66535655 49.41433957 -27.99794006 48.24629211 C-26.34325467 45.35046034 -24.68829877 42.45478399 -23.03295898 39.55932617 C-19.88978719 34.06081605 -16.7488645 28.5610619 -13.61514282 23.05715942 C-12.12452927 20.43941793 -10.6327473 17.82234321 -9.14086914 15.20532227 C-8.42576334 13.95012298 -7.71123866 12.69459242 -6.99731445 11.4387207 C-6.01137144 9.70441972 -5.02331812 7.97131894 -4.03515625 6.23828125 C-3.19029663 4.7538855 -3.19029663 4.7538855 -2.32836914 3.23950195 C-1 1 -1 1 0 0 Z " transform="translate(1047,685)"/>
    <path class="counter-path" d="M0 0 C9.838125 -0.061875 19.67625 -0.12375 29.8125 -0.1875 C34.43922729 -0.22846802 34.43922729 -0.22846802 39.15942383 -0.27026367 C41.63362233 -0.27903434 44.1078252 -0.2866769 46.58203125 -0.29296875 C47.84285522 -0.30831665 49.1036792 -0.32366455 50.40270996 -0.33947754 C63.07660245 -0.34319168 76.30636438 2.31649999 86.171875 10.88671875 C94.47340326 19.91551765 96.51988116 29.01452004 96.2734375 41.07421875 C95.5251555 51.81741037 91.17586419 60.19617582 83.37890625 67.5234375 C75.32933959 73.89359817 64.76762205 76.13437266 54.71923828 76.11352539 C53.48149658 76.11340454 52.24375488 76.11328369 50.96850586 76.1135918 C49.03890015 76.10548523 49.03890015 76.10548523 47.0703125 76.09765625 C45.87720459 76.09664917 44.68409668 76.09564209 43.45483398 76.09460449 C39.01154617 76.08938506 34.56827209 76.0754238 30.125 76.0625 C15.213125 76.0315625 15.213125 76.0315625 0 76 C0 50.92 0 25.84 0 0 Z " transform="translate(825,687)"/>
</svg>
